<?xml version="1.0" encoding="UTF-8" standalone="no"?>
<!DOCTYPE svg PUBLIC "-//W3C//DTD SVG 1.1//EN"
 "http://www.w3.org/Graphics/SVG/1.1/DTD/svg11.dtd">
<!-- Generated by graphviz version 12.2.1 (0)
 -->
<!-- Title: G Pages: 1 -->
<svg width="277pt" height="487pt"
 viewBox="0.00 0.00 276.57 487.25" xmlns="http://www.w3.org/2000/svg" xmlns:xlink="http://www.w3.org/1999/xlink">
<g id="graph0" class="graph" transform="scale(1 1) rotate(0) translate(4 483.25)">
<title>G</title><style>.edge>path:hover{stroke-width:8}</style>
<polygon fill="white" stroke="none" points="-4,4 -4,-483.25 272.57,-483.25 272.57,4 -4,4"/>
<!-- cards -->
<g id="node1" class="node">
<title>cards</title><style>.edge>path:hover{stroke-width:8}</style>
<ellipse fill="#c04040" stroke="black" cx="53.48" cy="-389.25" rx="27" ry="18"/>
<text text-anchor="middle" x="53.48" y="-385.75" font-family="Helvetica,sans-Serif" font-size="10.00" fill="#ffffff">cards</text>
</g>
<!-- games_blackjack -->
<g id="node4" class="node">
<title>games_blackjack</title><style>.edge>path:hover{stroke-width:8}</style>
<ellipse fill="#9fb83d" stroke="black" cx="40.48" cy="-275.63" rx="40.48" ry="22.63"/>
<text text-anchor="middle" x="40.48" y="-278.13" font-family="Helvetica,sans-Serif" font-size="10.00" fill="#000000">games.</text>
<text text-anchor="middle" x="40.48" y="-266.13" font-family="Helvetica,sans-Serif" font-size="10.00" fill="#000000">blackjack</text>
</g>
<!-- cards&#45;&gt;games_blackjack -->
<g id="edge1" class="edge">
<title>cards&#45;&gt;games_blackjack</title><style>.edge>path:hover{stroke-width:8}</style>
<path fill="none" stroke="black" d="M60.1,-371.35C63.82,-361.08 68.17,-347.6 70.48,-335.25"/>
<path fill="none" stroke="black" d="M70.48,-334.25C72.3,-324.53 69.35,-314.71 64.69,-306"/>
<polygon fill="#c04040" stroke="black" points="67.71,-304.22 59.42,-297.63 61.79,-307.96 67.71,-304.22"/>
</g>
<!-- play_blackjack -->
<g id="node8" class="node">
<title>play_blackjack</title><style>.edge>path:hover{stroke-width:8}</style>
<ellipse fill="#7e3d8f" stroke="black" cx="143.48" cy="-127" rx="48.41" ry="18"/>
<text text-anchor="middle" x="143.48" y="-123.5" font-family="Helvetica,sans-Serif" font-size="10.00" fill="#ffffff">play_blackjack</text>
</g>
<!-- cards&#45;&gt;play_blackjack -->
<g id="edge2" class="edge">
<title>cards&#45;&gt;play_blackjack</title><style>.edge>path:hover{stroke-width:8}</style>
<path fill="none" stroke="black" d="M70.48,-334.25C76.12,-304.1 103.73,-306.94 108.48,-276.63"/>
<path fill="none" stroke="black" d="M108.48,-274.63C113.62,-241.86 94.5,-230.08 108.48,-200"/>
</g>
<!-- cards_card -->
<g id="node2" class="node">
<title>cards_card</title><style>.edge>path:hover{stroke-width:8}</style>
<ellipse fill="#ce3b3b" stroke="black" cx="53.48" cy="-461.25" rx="37.13" ry="18"/>
<text text-anchor="middle" x="53.48" y="-457.75" font-family="Helvetica,sans-Serif" font-size="10.00" fill="#ffffff">cards.card</text>
</g>
<!-- cards_card&#45;&gt;cards -->
<g id="edge3" class="edge">
<title>cards_card&#45;&gt;cards</title><style>.edge>path:hover{stroke-width:8}</style>
<path fill="none" stroke="black" d="M53.48,-442.95C53.48,-435.66 53.48,-426.98 53.48,-418.79"/>
<polygon fill="#ce3b3b" stroke="black" points="56.98,-418.87 53.48,-408.87 49.98,-418.87 56.98,-418.87"/>
</g>
<!-- cards_card&#45;&gt;games_blackjack -->
<g id="edge4" class="edge">
<title>cards_card&#45;&gt;games_blackjack</title><style>.edge>path:hover{stroke-width:8}</style>
<path fill="none" stroke="black" d="M38.99,-444.42C30.95,-434.53 21.73,-421.08 17.48,-407.25 7.35,-374.32 16.92,-335.26 26.62,-308.49"/>
<polygon fill="#ce3b3b" stroke="black" points="29.86,-309.82 30.19,-299.23 23.33,-307.31 29.86,-309.82"/>
</g>
<!-- cards_card&#45;&gt;play_blackjack -->
<g id="edge5" class="edge">
<title>cards_card&#45;&gt;play_blackjack</title><style>.edge>path:hover{stroke-width:8}</style>
<path fill="none" stroke="black" d="M67.25,-444.17C75.04,-434.19 84.25,-420.73 89.48,-407.25 110.73,-352.57 99.4,-334.59 108.48,-276.63"/>
</g>
<!-- games -->
<g id="node3" class="node">
<title>games</title><style>.edge>path:hover{stroke-width:8}</style>
<ellipse fill="#9eb34c" stroke="black" cx="47.48" cy="-199" rx="27.21" ry="18"/>
<text text-anchor="middle" x="47.48" y="-195.5" font-family="Helvetica,sans-Serif" font-size="10.00" fill="#000000">games</text>
</g>
<!-- games&#45;&gt;play_blackjack -->
<g id="edge6" class="edge">
<title>games&#45;&gt;play_blackjack</title><style>.edge>path:hover{stroke-width:8}</style>
<path fill="none" stroke="black" d="M65.09,-185.16C78.57,-175.33 97.49,-161.53 113.37,-149.96"/>
<polygon fill="#9eb34c" stroke="black" points="115.06,-153.06 121.08,-144.34 110.93,-147.4 115.06,-153.06"/>
</g>
<!-- games_blackjack&#45;&gt;games -->
<g id="edge7" class="edge">
<title>games_blackjack&#45;&gt;games</title><style>.edge>path:hover{stroke-width:8}</style>
<path fill="none" stroke="black" d="M42.54,-252.64C43.26,-245.01 44.07,-236.35 44.83,-228.29"/>
<polygon fill="#9fb83d" stroke="black" points="48.29,-228.89 45.74,-218.6 41.32,-228.23 48.29,-228.89"/>
</g>
<!-- games_blackjack&#45;&gt;play_blackjack -->
<g id="edge8" class="edge">
<title>games_blackjack&#45;&gt;play_blackjack</title><style>.edge>path:hover{stroke-width:8}</style>
<path fill="none" stroke="black" d="M63.01,-256.55C78.5,-242.78 98.07,-222.41 108.48,-200"/>
<path fill="none" stroke="black" d="M108.48,-198C115.1,-183.75 122.88,-168.1 129.42,-155.21"/>
<polygon fill="#9fb83d" stroke="black" points="132.45,-156.97 133.89,-146.47 126.22,-153.79 132.45,-156.97"/>
</g>
<!-- main_py -->
<g id="node5" class="node">
<title>main_py</title><style>.edge>path:hover{stroke-width:8}</style>
<ellipse fill="#59a678" stroke="black" cx="143.48" cy="-18" rx="30.37" ry="18"/>
<text text-anchor="middle" x="143.48" y="-14.5" font-family="Helvetica,sans-Serif" font-size="10.00" fill="#000000">main.py</text>
</g>
<!-- monte_carlo -->
<g id="node6" class="node">
<title>monte_carlo</title><style>.edge>path:hover{stroke-width:8}</style>
<ellipse fill="#4c75b3" stroke="black" cx="178.48" cy="-199" rx="41.64" ry="18"/>
<text text-anchor="middle" x="178.48" y="-195.5" font-family="Helvetica,sans-Serif" font-size="10.00" fill="#ffffff">monte_carlo</text>
</g>
<!-- monte_carlo&#45;&gt;play_blackjack -->
<g id="edge9" class="edge">
<title>monte_carlo&#45;&gt;play_blackjack</title><style>.edge>path:hover{stroke-width:8}</style>
<path fill="none" stroke="black" d="M170.01,-181.05C166.1,-173.23 161.36,-163.75 156.97,-154.98"/>
<polygon fill="#4c75b3" stroke="black" points="160.16,-153.52 152.55,-146.14 153.89,-156.65 160.16,-153.52"/>
</g>
<!-- monte_carlo_MonteCarlo -->
<g id="node7" class="node">
<title>monte_carlo_MonteCarlo</title><style>.edge>path:hover{stroke-width:8}</style>
<ellipse fill="#4778c2" stroke="black" cx="217.48" cy="-275.63" rx="51.09" ry="22.63"/>
<text text-anchor="middle" x="217.48" y="-278.13" font-family="Helvetica,sans-Serif" font-size="10.00" fill="#ffffff">monte_carlo.</text>
<text text-anchor="middle" x="217.48" y="-266.13" font-family="Helvetica,sans-Serif" font-size="10.00" fill="#ffffff">MonteCarlo</text>
</g>
<!-- monte_carlo_MonteCarlo&#45;&gt;monte_carlo -->
<g id="edge10" class="edge">
<title>monte_carlo_MonteCarlo&#45;&gt;monte_carlo</title><style>.edge>path:hover{stroke-width:8}</style>
<path fill="none" stroke="black" d="M206.41,-253.44C202.12,-245.23 197.15,-235.73 192.61,-227.04"/>
<polygon fill="#4778c2" stroke="black" points="195.79,-225.56 188.05,-218.32 189.58,-228.8 195.79,-225.56"/>
</g>
<!-- monte_carlo_MonteCarlo&#45;&gt;play_blackjack -->
<g id="edge11" class="edge">
<title>monte_carlo_MonteCarlo&#45;&gt;play_blackjack</title><style>.edge>path:hover{stroke-width:8}</style>
<path fill="none" stroke="black" d="M227.25,-253.15C234.76,-233.21 241.95,-203.32 229.48,-181 220.5,-164.92 204.42,-153.12 188.58,-144.78"/>
<polygon fill="#4778c2" stroke="black" points="190.16,-141.66 179.64,-140.46 187.11,-147.96 190.16,-141.66"/>
</g>
<!-- play_blackjack&#45;&gt;main_py -->
<g id="edge12" class="edge">
<title>play_blackjack&#45;&gt;main_py</title><style>.edge>path:hover{stroke-width:8}</style>
<path fill="none" stroke="black" d="M143.48,-108.81C143.48,-92.27 143.48,-66.98 143.48,-47.44"/>
<polygon fill="#7e3d8f" stroke="black" points="146.98,-47.66 143.48,-37.66 139.98,-47.66 146.98,-47.66"/>
</g>
</g>
</svg>
