<?xml version="1.0" encoding="UTF-8" standalone="no"?>
<!DOCTYPE svg PUBLIC "-//W3C//DTD SVG 1.1//EN"
 "http://www.w3.org/Graphics/SVG/1.1/DTD/svg11.dtd">
<!-- Generated by graphviz version 12.2.1 (0)
 -->
<!-- Title: G Pages: 1 -->
<svg width="467pt" height="487pt"
 viewBox="0.00 0.00 467.08 487.25" xmlns="http://www.w3.org/2000/svg" xmlns:xlink="http://www.w3.org/1999/xlink">
<g id="graph0" class="graph" transform="scale(1 1) rotate(0) translate(4 483.25)">
<title>G</title><style>.edge>path:hover{stroke-width:8}</style>
<polygon fill="white" stroke="none" points="-4,4 -4,-483.25 463.08,-483.25 463.08,4 -4,4"/>
<!-- cards -->
<g id="node1" class="node">
<title>cards</title><style>.edge>path:hover{stroke-width:8}</style>
<ellipse fill="#b83d3d" stroke="black" cx="194.99" cy="-317.25" rx="27" ry="18"/>
<text text-anchor="middle" x="194.99" y="-313.75" font-family="Helvetica,sans-Serif" font-size="10.00" fill="#ffffff">cards</text>
</g>
<!-- games_blackjack -->
<g id="node5" class="node">
<title>games_blackjack</title><style>.edge>path:hover{stroke-width:8}</style>
<ellipse fill="#75b03a" stroke="black" cx="260.99" cy="-203.63" rx="40.48" ry="22.63"/>
<text text-anchor="middle" x="260.99" y="-206.13" font-family="Helvetica,sans-Serif" font-size="10.00" fill="#000000">games.</text>
<text text-anchor="middle" x="260.99" y="-194.13" font-family="Helvetica,sans-Serif" font-size="10.00" fill="#000000">blackjack</text>
</g>
<!-- cards&#45;&gt;games_blackjack -->
<g id="edge1" class="edge">
<title>cards&#45;&gt;games_blackjack</title><style>.edge>path:hover{stroke-width:8}</style>
<path fill="none" stroke="black" d="M1.99,-262.25C-1.63,-215.05 166.66,-239.92 211.99,-226.25 214.86,-225.39 217.78,-224.4 220.69,-223.34"/>
<polygon fill="#b83d3d" stroke="black" points="221.7,-226.7 229.71,-219.76 219.12,-220.19 221.7,-226.7"/>
</g>
<!-- main_py -->
<g id="node8" class="node">
<title>main_py</title><style>.edge>path:hover{stroke-width:8}</style>
<ellipse fill="#478585" stroke="black" cx="328.99" cy="-18" rx="30.37" ry="18"/>
<text text-anchor="middle" x="328.99" y="-14.5" font-family="Helvetica,sans-Serif" font-size="10.00" fill="#ffffff">main.py</text>
</g>
<!-- cards&#45;&gt;main_py -->
<g id="edge2" class="edge">
<title>cards&#45;&gt;main_py</title><style>.edge>path:hover{stroke-width:8}</style>
<path fill="none" stroke="black" d="M168.19,-314.45C115.78,-310.17 4.59,-297.12 1.99,-263.25"/>
<path fill="none" stroke="black" d="M1.99,-262.25C-0.84,-225.28 -3.76,-208.62 20.99,-181 85.15,-109.39 134.23,-140.73 224.99,-109 271.17,-92.86 310.02,-118.08 328.99,-73"/>
<path fill="none" stroke="black" d="M328.99,-72C331.77,-64.33 332.62,-55.61 332.55,-47.49"/>
<polygon fill="#b83d3d" stroke="black" points="336.06,-47.51 331.99,-37.73 329.07,-47.92 336.06,-47.51"/>
</g>
<!-- cards_card -->
<g id="node2" class="node">
<title>cards_card</title><style>.edge>path:hover{stroke-width:8}</style>
<ellipse fill="#db2f2f" stroke="black" cx="260.99" cy="-461.25" rx="37.13" ry="18"/>
<text text-anchor="middle" x="260.99" y="-457.75" font-family="Helvetica,sans-Serif" font-size="10.00" fill="#ffffff">cards.card</text>
</g>
<!-- cards_card&#45;&gt;cards -->
<g id="edge3" class="edge">
<title>cards_card&#45;&gt;cards</title><style>.edge>path:hover{stroke-width:8}</style>
<path fill="none" stroke="black" d="M243.75,-445.19C233.58,-435.38 221.31,-421.74 213.99,-407.25 204.45,-388.37 199.69,-364.9 197.33,-346.8"/>
<polygon fill="#db2f2f" stroke="black" points="200.82,-346.57 196.23,-337.02 193.87,-347.35 200.82,-346.57"/>
</g>
<!-- cards_deck -->
<g id="node3" class="node">
<title>cards_deck</title><style>.edge>path:hover{stroke-width:8}</style>
<ellipse fill="#c04040" stroke="black" cx="260.99" cy="-389.25" rx="38.49" ry="18"/>
<text text-anchor="middle" x="260.99" y="-385.75" font-family="Helvetica,sans-Serif" font-size="10.00" fill="#ffffff">cards.deck</text>
</g>
<!-- cards_card&#45;&gt;cards_deck -->
<g id="edge4" class="edge">
<title>cards_card&#45;&gt;cards_deck</title><style>.edge>path:hover{stroke-width:8}</style>
<path fill="none" stroke="black" d="M260.99,-442.95C260.99,-435.66 260.99,-426.98 260.99,-418.79"/>
<polygon fill="#db2f2f" stroke="black" points="264.49,-418.87 260.99,-408.87 257.49,-418.87 264.49,-418.87"/>
</g>
<!-- cards_card&#45;&gt;games_blackjack -->
<g id="edge5" class="edge">
<title>cards_card&#45;&gt;games_blackjack</title><style>.edge>path:hover{stroke-width:8}</style>
<path fill="none" stroke="black" d="M278.58,-445.36C288.87,-435.61 301.15,-421.98 307.99,-407.25 335.26,-348.61 345.68,-325.74 328.99,-263.25"/>
<path fill="none" stroke="black" d="M328.99,-262.25C323.97,-247.42 312.3,-235.31 300.01,-226.09"/>
<polygon fill="#db2f2f" stroke="black" points="302.06,-223.25 291.84,-220.46 298.09,-229.01 302.06,-223.25"/>
</g>
<!-- cards_card&#45;&gt;main_py -->
<g id="edge6" class="edge">
<title>cards_card&#45;&gt;main_py</title><style>.edge>path:hover{stroke-width:8}</style>
<path fill="none" stroke="black" d="M328.99,-262.25C309.87,-205.73 330.42,-187.65 328.99,-128"/>
</g>
<!-- cards_deck&#45;&gt;cards -->
<g id="edge7" class="edge">
<title>cards_deck&#45;&gt;cards</title><style>.edge>path:hover{stroke-width:8}</style>
<path fill="none" stroke="black" d="M246.02,-372.37C237.34,-363.17 226.27,-351.42 216.65,-341.23"/>
<polygon fill="#c04040" stroke="black" points="219.45,-339.09 210.05,-334.22 214.36,-343.9 219.45,-339.09"/>
</g>
<!-- cards_deck&#45;&gt;games_blackjack -->
<g id="edge8" class="edge">
<title>cards_deck&#45;&gt;games_blackjack</title><style>.edge>path:hover{stroke-width:8}</style>
<path fill="none" stroke="black" d="M260.99,-370.98C260.99,-340.56 260.99,-276.95 260.99,-237.8"/>
<polygon fill="#c04040" stroke="black" points="264.49,-238.01 260.99,-228.01 257.49,-238.01 264.49,-238.01"/>
</g>
<!-- games -->
<g id="node4" class="node">
<title>games</title><style>.edge>path:hover{stroke-width:8}</style>
<ellipse fill="#75a446" stroke="black" cx="260.99" cy="-127" rx="27.21" ry="18"/>
<text text-anchor="middle" x="260.99" y="-123.5" font-family="Helvetica,sans-Serif" font-size="10.00" fill="#000000">games</text>
</g>
<!-- games&#45;&gt;main_py -->
<g id="edge9" class="edge">
<title>games&#45;&gt;main_py</title><style>.edge>path:hover{stroke-width:8}</style>
<path fill="none" stroke="black" d="M283.17,-116.21C299.59,-107.55 320.52,-93.14 328.99,-73"/>
</g>
<!-- games_blackjack&#45;&gt;games -->
<g id="edge10" class="edge">
<title>games_blackjack&#45;&gt;games</title><style>.edge>path:hover{stroke-width:8}</style>
<path fill="none" stroke="black" d="M260.99,-180.64C260.99,-173.1 260.99,-164.56 260.99,-156.57"/>
<polygon fill="#75b03a" stroke="black" points="264.49,-156.61 260.99,-146.61 257.49,-156.61 264.49,-156.61"/>
</g>
<!-- games_blackjack&#45;&gt;main_py -->
<g id="edge11" class="edge">
<title>games_blackjack&#45;&gt;main_py</title><style>.edge>path:hover{stroke-width:8}</style>
<path fill="none" stroke="black" d="M289,-186.76C308.01,-173.69 329.6,-153.23 328.99,-128"/>
<path fill="none" stroke="black" d="M328.99,-126C328.43,-102.45 319.86,-94.71 328.99,-73"/>
</g>
<!-- games_rtb -->
<g id="node6" class="node">
<title>games_rtb</title><style>.edge>path:hover{stroke-width:8}</style>
<ellipse fill="#85b653" stroke="black" cx="65.99" cy="-203.63" rx="35.78" ry="18"/>
<text text-anchor="middle" x="65.99" y="-200.13" font-family="Helvetica,sans-Serif" font-size="10.00" fill="#000000">games.rtb</text>
</g>
<!-- games_rtb&#45;&gt;games -->
<g id="edge12" class="edge">
<title>games_rtb&#45;&gt;games</title><style>.edge>path:hover{stroke-width:8}</style>
<path fill="none" stroke="black" d="M90.42,-189.98C96.73,-186.89 103.56,-183.7 109.99,-181 149.01,-164.63 195.05,-148.98 225.94,-138.99"/>
<polygon fill="#85b653" stroke="black" points="226.7,-142.42 235.16,-136.03 224.56,-135.75 226.7,-142.42"/>
</g>
<!-- games_slots -->
<g id="node7" class="node">
<title>games_slots</title><style>.edge>path:hover{stroke-width:8}</style>
<ellipse fill="#85b653" stroke="black" cx="160.99" cy="-203.63" rx="41.64" ry="18"/>
<text text-anchor="middle" x="160.99" y="-200.13" font-family="Helvetica,sans-Serif" font-size="10.00" fill="#000000">games.slots</text>
</g>
<!-- games_slots&#45;&gt;games -->
<g id="edge13" class="edge">
<title>games_slots&#45;&gt;games</title><style>.edge>path:hover{stroke-width:8}</style>
<path fill="none" stroke="black" d="M181.23,-187.53C196.5,-176.13 217.58,-160.4 234.24,-147.96"/>
<polygon fill="#85b653" stroke="black" points="236.33,-150.78 242.25,-141.99 232.14,-145.17 236.33,-150.78"/>
</g>
<!-- monte_carlo -->
<g id="node9" class="node">
<title>monte_carlo</title><style>.edge>path:hover{stroke-width:8}</style>
<ellipse fill="#7f4cb3" stroke="black" cx="398.99" cy="-127" rx="41.64" ry="18"/>
<text text-anchor="middle" x="398.99" y="-123.5" font-family="Helvetica,sans-Serif" font-size="10.00" fill="#ffffff">monte_carlo</text>
</g>
<!-- monte_carlo&#45;&gt;main_py -->
<g id="edge14" class="edge">
<title>monte_carlo&#45;&gt;main_py</title><style>.edge>path:hover{stroke-width:8}</style>
<path fill="none" stroke="black" d="M365.63,-116.06C343.69,-107.47 320.48,-93.23 328.99,-73"/>
</g>
<!-- monte_carlo_MonteCarlo -->
<g id="node10" class="node">
<title>monte_carlo_MonteCarlo</title><style>.edge>path:hover{stroke-width:8}</style>
<ellipse fill="#8547c2" stroke="black" cx="407.99" cy="-203.63" rx="51.09" ry="22.63"/>
<text text-anchor="middle" x="407.99" y="-206.13" font-family="Helvetica,sans-Serif" font-size="10.00" fill="#ffffff">monte_carlo.</text>
<text text-anchor="middle" x="407.99" y="-194.13" font-family="Helvetica,sans-Serif" font-size="10.00" fill="#ffffff">MonteCarlo</text>
</g>
<!-- monte_carlo_MonteCarlo&#45;&gt;main_py -->
<g id="edge15" class="edge">
<title>monte_carlo_MonteCarlo&#45;&gt;main_py</title><style>.edge>path:hover{stroke-width:8}</style>
<path fill="none" stroke="black" d="M373.97,-186.54C352.86,-173.97 329.62,-154.22 328.99,-128"/>
</g>
<!-- monte_carlo_MonteCarlo&#45;&gt;monte_carlo -->
<g id="edge16" class="edge">
<title>monte_carlo_MonteCarlo&#45;&gt;monte_carlo</title><style>.edge>path:hover{stroke-width:8}</style>
<path fill="none" stroke="black" d="M405.34,-180.64C404.42,-173.01 403.38,-164.35 402.41,-156.29"/>
<polygon fill="#8547c2" stroke="black" points="405.91,-156.11 401.24,-146.6 398.96,-156.95 405.91,-156.11"/>
</g>
</g>
</svg>
